<svg id="svg" version="1.1" xmlns="http://www.w3.org/2000/svg" xmlns:xlink="http://www.w3.org/1999/xlink" width="400" height="400" viewBox="0, 0, 400,400"><g id="svgg"><path id="path0" d="M0.000 200.048 L 0.000 400.095 3.847 399.927 C 6.872 399.795,7.801 399.614,8.191 399.079 C 8.465 398.706,9.073 398.400,9.544 398.400 C 10.015 398.400,10.400 398.220,10.400 398.000 C 10.400 397.780,10.766 397.600,11.213 397.600 C 11.659 397.600,12.129 397.330,12.255 397.000 C 12.382 396.670,12.916 396.400,13.443 396.400 C 13.969 396.400,14.400 396.220,14.400 396.000 C 14.400 395.780,14.766 395.600,15.213 395.600 C 15.659 395.600,16.129 395.330,16.255 395.000 C 16.382 394.670,16.916 394.400,17.443 394.400 C 17.969 394.400,18.400 394.220,18.400 394.000 C 18.400 393.780,18.766 393.600,19.213 393.600 C 19.659 393.600,20.129 393.330,20.255 393.000 C 20.382 392.670,20.916 392.400,21.443 392.400 C 21.969 392.400,22.400 392.220,22.400 392.000 C 22.400 391.780,22.766 391.600,23.213 391.600 C 23.659 391.600,24.129 391.330,24.255 391.000 C 24.382 390.670,24.916 390.400,25.443 390.400 C 25.969 390.400,26.400 390.220,26.400 390.000 C 26.400 389.780,26.766 389.600,27.213 389.600 C 27.659 389.600,28.129 389.330,28.255 389.000 C 28.382 388.670,28.916 388.400,29.443 388.400 C 29.969 388.400,30.400 388.220,30.400 388.000 C 30.400 387.780,30.766 387.600,31.213 387.600 C 31.659 387.600,32.129 387.330,32.255 387.000 C 32.382 386.670,32.916 386.400,33.443 386.400 C 33.969 386.400,34.400 386.220,34.400 386.000 C 34.400 385.780,34.766 385.600,35.213 385.600 C 35.659 385.600,36.129 385.330,36.255 385.000 C 36.382 384.670,36.916 384.400,37.443 384.400 C 37.969 384.400,38.400 384.220,38.400 384.000 C 38.400 383.780,38.766 383.600,39.213 383.600 C 39.659 383.600,40.129 383.330,40.255 383.000 C 40.382 382.670,40.916 382.400,41.443 382.400 C 41.969 382.400,42.400 382.220,42.400 382.000 C 42.400 381.780,42.766 381.600,43.213 381.600 C 43.659 381.600,44.129 381.330,44.255 381.000 C 44.382 380.670,44.916 380.400,45.443 380.400 C 45.969 380.400,46.400 380.220,46.400 380.000 C 46.400 379.780,46.766 379.600,47.213 379.600 C 47.659 379.600,48.129 379.330,48.255 379.000 C 48.382 378.670,48.916 378.400,49.443 378.400 C 49.969 378.400,50.400 378.220,50.400 378.000 C 50.400 377.780,50.766 377.600,51.213 377.600 C 51.659 377.600,52.129 377.330,52.255 377.000 C 52.382 376.670,52.916 376.400,53.443 376.400 C 53.969 376.400,54.400 376.220,54.400 376.000 C 54.400 375.780,54.766 375.600,55.213 375.600 C 55.659 375.600,56.129 375.330,56.255 375.000 C 56.382 374.670,56.916 374.400,57.443 374.400 C 57.969 374.400,58.400 374.220,58.400 374.000 C 58.400 373.780,58.766 373.600,59.213 373.600 C 59.659 373.600,60.129 373.330,60.255 373.000 C 60.382 372.670,60.916 372.400,61.443 372.400 C 61.969 372.400,62.400 372.220,62.400 372.000 C 62.400 371.780,62.766 371.600,63.213 371.600 C 63.659 371.600,64.129 371.330,64.255 371.000 C 64.382 370.670,64.916 370.400,65.443 370.400 C 65.969 370.400,66.400 370.220,66.400 370.000 C 66.400 369.780,66.766 369.600,67.213 369.600 C 67.659 369.600,68.129 369.330,68.255 369.000 C 68.382 368.670,68.916 368.400,69.443 368.400 C 69.969 368.400,70.400 368.220,70.400 368.000 C 70.400 367.780,70.766 367.600,71.213 367.600 C 71.659 367.600,72.129 367.330,72.255 367.000 C 72.382 366.670,72.916 366.400,73.443 366.400 C 73.969 366.400,74.400 366.220,74.400 366.000 C 74.400 365.780,74.766 365.600,75.213 365.600 C 75.659 365.600,76.129 365.330,76.255 365.000 C 76.382 364.670,76.916 364.400,77.443 364.400 C 77.969 364.400,78.400 364.220,78.400 364.000 C 78.400 363.780,78.766 363.600,79.213 363.600 C 79.659 363.600,80.129 363.330,80.255 363.000 C 80.382 362.670,80.916 362.400,81.443 362.400 C 81.969 362.400,82.400 362.220,82.400 362.000 C 82.400 361.780,82.766 361.600,83.213 361.600 C 83.659 361.600,84.129 361.330,84.255 361.000 C 84.382 360.670,84.916 360.400,85.443 360.400 C 85.969 360.400,86.400 360.220,86.400 360.000 C 86.400 359.780,86.766 359.600,87.213 359.600 C 87.659 359.600,88.129 359.330,88.255 359.000 C 88.382 358.670,88.916 358.400,89.443 358.400 C 89.969 358.400,90.400 358.220,90.400 358.000 C 90.400 357.780,90.766 357.600,91.213 357.600 C 91.659 357.600,92.129 357.330,92.255 357.000 C 92.382 356.670,92.916 356.400,93.443 356.400 C 93.969 356.400,94.400 356.220,94.400 356.000 C 94.400 355.780,94.766 355.600,95.213 355.600 C 95.659 355.600,96.129 355.330,96.255 355.000 C 96.382 354.670,96.916 354.400,97.443 354.400 C 97.969 354.400,98.400 354.220,98.400 354.000 C 98.400 353.780,98.766 353.600,99.213 353.600 C 99.659 353.600,100.129 353.330,100.255 353.000 C 100.382 352.670,100.916 352.400,101.443 352.400 C 101.969 352.400,102.400 352.220,102.400 352.000 C 102.400 351.780,102.766 351.600,103.213 351.600 C 103.659 351.600,104.129 351.330,104.255 351.000 C 104.382 350.670,104.916 350.400,105.443 350.400 C 105.969 350.400,106.400 350.220,106.400 350.000 C 106.400 349.780,106.766 349.600,107.213 349.600 C 107.659 349.600,108.129 349.330,108.255 349.000 C 108.382 348.670,108.916 348.400,109.443 348.400 C 109.969 348.400,110.400 348.220,110.400 348.000 C 110.400 347.780,110.766 347.600,111.213 347.600 C 111.659 347.600,112.129 347.330,112.255 347.000 C 112.382 346.670,112.916 346.400,113.443 346.400 C 113.969 346.400,114.400 346.220,114.400 346.000 C 114.400 345.780,114.766 345.600,115.213 345.600 C 115.659 345.600,116.129 345.330,116.255 345.000 C 116.382 344.670,116.916 344.400,117.443 344.400 C 117.969 344.400,118.400 344.220,118.400 344.000 C 118.400 343.780,118.766 343.600,119.213 343.600 C 119.659 343.600,120.129 343.330,120.255 343.000 C 120.382 342.670,120.916 342.400,121.443 342.400 C 121.969 342.400,122.400 342.220,122.400 342.000 C 122.400 341.780,122.766 341.600,123.213 341.600 C 123.659 341.600,124.129 341.330,124.255 341.000 C 124.382 340.670,124.916 340.400,125.443 340.400 C 125.969 340.400,126.400 340.220,126.400 340.000 C 126.400 339.780,126.766 339.600,127.213 339.600 C 127.659 339.600,128.129 339.330,128.255 339.000 C 128.382 338.670,128.916 338.400,129.443 338.400 C 129.969 338.400,130.400 338.220,130.400 338.000 C 130.400 337.780,130.766 337.600,131.213 337.600 C 131.659 337.600,132.129 337.330,132.255 337.000 C 132.382 336.670,132.916 336.400,133.443 336.400 C 133.969 336.400,134.400 336.220,134.400 336.000 C 134.400 335.780,134.766 335.600,135.213 335.600 C 135.659 335.600,136.129 335.330,136.255 335.000 C 136.382 334.670,136.916 334.400,137.443 334.400 C 137.969 334.400,138.400 334.220,138.400 334.000 C 138.400 333.780,138.766 333.600,139.213 333.600 C 139.659 333.600,140.129 333.330,140.255 333.000 C 140.382 332.670,140.916 332.400,141.443 332.400 C 141.969 332.400,142.400 332.220,142.400 332.000 C 142.400 331.780,142.766 331.600,143.213 331.600 C 143.659 331.600,144.129 331.330,144.255 331.000 C 144.382 330.670,144.916 330.400,145.443 330.400 C 145.969 330.400,146.400 330.220,146.400 330.000 C 146.400 329.780,146.766 329.600,147.213 329.600 C 147.659 329.600,148.129 329.330,148.255 329.000 C 148.382 328.670,148.916 328.400,149.443 328.400 C 149.969 328.400,150.400 328.220,150.400 328.000 C 150.400 327.780,150.766 327.600,151.213 327.600 C 151.659 327.600,152.129 327.330,152.255 327.000 C 152.382 326.670,152.916 326.400,153.443 326.400 C 153.969 326.400,154.400 326.220,154.400 326.000 C 154.400 325.780,154.766 325.600,155.213 325.600 C 155.659 325.600,156.129 325.330,156.255 325.000 C 156.382 324.670,156.916 324.400,157.443 324.400 C 157.969 324.400,158.400 324.220,158.400 324.000 C 158.400 323.780,158.766 323.600,159.213 323.600 C 159.659 323.600,160.129 323.330,160.255 323.000 C 160.382 322.670,160.916 322.400,161.443 322.400 C 161.969 322.400,162.400 322.220,162.400 322.000 C 162.400 321.780,162.766 321.600,163.213 321.600 C 163.659 321.600,164.129 321.330,164.255 321.000 C 164.382 320.670,164.916 320.400,165.443 320.400 C 165.969 320.400,166.400 320.220,166.400 320.000 C 166.400 319.780,166.766 319.600,167.213 319.600 C 167.659 319.600,168.129 319.330,168.255 319.000 C 168.382 318.670,168.916 318.400,169.443 318.400 C 169.969 318.400,170.400 318.220,170.400 318.000 C 170.400 317.780,170.766 317.600,171.213 317.600 C 171.659 317.600,172.129 317.330,172.255 317.000 C 172.382 316.670,172.916 316.400,173.443 316.400 C 173.969 316.400,174.400 316.220,174.400 316.000 C 174.400 315.780,174.766 315.600,175.213 315.600 C 175.659 315.600,176.129 315.330,176.255 315.000 C 176.382 314.670,176.916 314.400,177.443 314.400 C 177.969 314.400,178.400 314.220,178.400 314.000 C 178.400 313.780,178.766 313.600,179.213 313.600 C 179.659 313.600,180.129 313.330,180.255 313.000 C 180.382 312.670,180.916 312.400,181.443 312.400 C 181.969 312.400,182.400 312.220,182.400 312.000 C 182.400 311.780,182.766 311.600,183.213 311.600 C 183.659 311.600,184.129 311.330,184.255 311.000 C 184.382 310.670,184.916 310.400,185.443 310.400 C 185.969 310.400,186.400 310.220,186.400 310.000 C 186.400 309.780,186.766 309.600,187.213 309.600 C 187.659 309.600,188.129 309.330,188.255 309.000 C 188.382 308.670,188.916 308.400,189.443 308.400 C 189.969 308.400,190.400 308.220,190.400 308.000 C 190.400 307.780,190.766 307.600,191.213 307.600 C 191.659 307.600,192.129 307.330,192.255 307.000 C 192.382 306.670,192.916 306.400,193.443 306.400 C 193.969 306.400,194.400 306.220,194.400 306.000 C 194.400 305.780,194.766 305.600,195.213 305.600 C 195.659 305.600,196.129 305.330,196.255 305.000 C 196.382 304.670,196.916 304.400,197.443 304.400 C 197.969 304.400,198.400 304.220,198.400 304.000 C 198.400 303.780,198.766 303.600,199.213 303.600 C 199.659 303.600,200.129 303.330,200.255 303.000 C 200.382 302.670,200.916 302.400,201.443 302.400 C 201.969 302.400,202.400 302.220,202.400 302.000 C 202.400 301.780,202.766 301.600,203.213 301.600 C 203.659 301.600,204.129 301.330,204.255 301.000 C 204.382 300.670,204.916 300.400,205.443 300.400 C 205.969 300.400,206.400 300.220,206.400 300.000 C 206.400 299.780,206.766 299.600,207.213 299.600 C 207.659 299.600,208.129 299.330,208.255 299.000 C 208.382 298.670,208.916 298.400,209.443 298.400 C 209.969 298.400,210.400 298.220,210.400 298.000 C 210.400 297.780,210.766 297.600,211.213 297.600 C 211.659 297.600,212.129 297.330,212.255 297.000 C 212.382 296.670,212.916 296.400,213.443 296.400 C 213.969 296.400,214.400 296.220,214.400 296.000 C 214.400 295.780,214.766 295.600,215.213 295.600 C 215.659 295.600,216.129 295.330,216.255 295.000 C 216.382 294.670,216.916 294.400,217.443 294.400 C 217.969 294.400,218.400 294.220,218.400 294.000 C 218.400 293.780,218.766 293.600,219.213 293.600 C 219.659 293.600,220.129 293.330,220.255 293.000 C 220.382 292.670,220.916 292.400,221.443 292.400 C 221.969 292.400,222.400 292.220,222.400 292.000 C 222.400 291.780,222.766 291.600,223.213 291.600 C 223.659 291.600,224.129 291.330,224.255 291.000 C 224.382 290.670,224.916 290.400,225.443 290.400 C 225.969 290.400,226.400 290.220,226.400 290.000 C 226.400 289.780,226.766 289.600,227.213 289.600 C 227.659 289.600,228.129 289.330,228.255 289.000 C 228.382 288.670,228.916 288.400,229.443 288.400 C 229.969 288.400,230.400 288.220,230.400 288.000 C 230.400 287.780,230.766 287.600,231.213 287.600 C 231.659 287.600,232.129 287.330,232.255 287.000 C 232.382 286.670,232.916 286.400,233.443 286.400 C 233.969 286.400,234.400 286.220,234.400 286.000 C 234.400 285.780,234.766 285.600,235.213 285.600 C 235.659 285.600,236.129 285.330,236.255 285.000 C 236.382 284.670,236.916 284.400,237.443 284.400 C 237.969 284.400,238.400 284.220,238.400 284.000 C 238.400 283.780,238.766 283.600,239.213 283.600 C 239.659 283.600,240.129 283.330,240.255 283.000 C 240.382 282.670,240.916 282.400,241.443 282.400 C 241.969 282.400,242.400 282.220,242.400 282.000 C 242.400 281.780,242.766 281.600,243.213 281.600 C 243.659 281.600,244.129 281.330,244.255 281.000 C 244.382 280.670,244.916 280.400,245.443 280.400 C 245.969 280.400,246.400 280.220,246.400 280.000 C 246.400 279.780,246.766 279.600,247.213 279.600 C 247.659 279.600,248.129 279.330,248.255 279.000 C 248.382 278.670,248.916 278.400,249.443 278.400 C 249.969 278.400,250.400 278.220,250.400 278.000 C 250.400 277.780,250.766 277.600,251.213 277.600 C 251.659 277.600,252.129 277.330,252.255 277.000 C 252.382 276.670,252.916 276.400,253.443 276.400 C 253.969 276.400,254.400 276.220,254.400 276.000 C 254.400 275.780,254.766 275.600,255.213 275.600 C 255.659 275.600,256.129 275.330,256.255 275.000 C 256.382 274.670,256.916 274.400,257.443 274.400 C 257.969 274.400,258.400 274.220,258.400 274.000 C 258.400 273.780,258.766 273.600,259.213 273.600 C 259.659 273.600,260.129 273.330,260.255 273.000 C 260.382 272.670,260.916 272.400,261.443 272.400 C 261.969 272.400,262.400 272.220,262.400 272.000 C 262.400 271.780,262.766 271.600,263.213 271.600 C 263.659 271.600,264.129 271.330,264.255 271.000 C 264.382 270.670,264.916 270.400,265.443 270.400 C 265.969 270.400,266.400 270.220,266.400 270.000 C 266.400 269.780,266.766 269.600,267.213 269.600 C 267.659 269.600,268.129 269.330,268.255 269.000 C 268.382 268.670,268.916 268.400,269.443 268.400 C 269.969 268.400,270.400 268.220,270.400 268.000 C 270.400 267.780,270.766 267.600,271.213 267.600 C 271.659 267.600,272.129 267.330,272.255 267.000 C 272.382 266.670,272.916 266.400,273.443 266.400 C 273.969 266.400,274.400 266.220,274.400 266.000 C 274.400 265.780,274.766 265.600,275.213 265.600 C 275.659 265.600,276.129 265.330,276.255 265.000 C 276.382 264.670,276.916 264.400,277.443 264.400 C 277.969 264.400,278.400 264.220,278.400 264.000 C 278.400 263.780,278.766 263.600,279.213 263.600 C 279.659 263.600,280.129 263.330,280.255 263.000 C 280.382 262.670,280.916 262.400,281.443 262.400 C 281.969 262.400,282.400 262.220,282.400 262.000 C 282.400 261.780,282.766 261.600,283.213 261.600 C 283.659 261.600,284.129 261.330,284.255 261.000 C 284.382 260.670,284.916 260.400,285.443 260.400 C 285.969 260.400,286.400 260.220,286.400 260.000 C 286.400 259.780,286.766 259.600,287.213 259.600 C 287.659 259.600,288.129 259.330,288.255 259.000 C 288.382 258.670,288.916 258.400,289.443 258.400 C 289.969 258.400,290.400 258.220,290.400 258.000 C 290.400 257.780,290.766 257.600,291.213 257.600 C 291.659 257.600,292.129 257.330,292.255 257.000 C 292.382 256.670,292.916 256.400,293.443 256.400 C 293.969 256.400,294.400 256.220,294.400 256.000 C 294.400 255.780,294.766 255.600,295.213 255.600 C 295.659 255.600,296.129 255.330,296.255 255.000 C 296.382 254.670,296.916 254.400,297.443 254.400 C 297.969 254.400,298.400 254.220,298.400 254.000 C 298.400 253.780,298.766 253.600,299.213 253.600 C 299.659 253.600,300.129 253.330,300.255 253.000 C 300.382 252.670,300.916 252.400,301.443 252.400 C 301.969 252.400,302.400 252.220,302.400 252.000 C 302.400 251.780,302.766 251.600,303.213 251.600 C 303.659 251.600,304.129 251.330,304.255 251.000 C 304.382 250.670,304.916 250.400,305.443 250.400 C 305.969 250.400,306.400 250.220,306.400 250.000 C 306.400 249.780,306.766 249.600,307.213 249.600 C 307.659 249.600,308.129 249.330,308.255 249.000 C 308.382 248.670,308.916 248.400,309.443 248.400 C 309.969 248.400,310.400 248.220,310.400 248.000 C 310.400 247.780,310.766 247.600,311.213 247.600 C 311.659 247.600,312.129 247.330,312.255 247.000 C 312.382 246.670,312.916 246.400,313.443 246.400 C 313.969 246.400,314.400 246.220,314.400 246.000 C 314.400 245.780,314.766 245.600,315.213 245.600 C 315.659 245.600,316.129 245.330,316.255 245.000 C 316.382 244.670,316.916 244.400,317.443 244.400 C 317.969 244.400,318.400 244.220,318.400 244.000 C 318.400 243.780,318.766 243.600,319.213 243.600 C 319.659 243.600,320.129 243.330,320.255 243.000 C 320.382 242.670,320.916 242.400,321.443 242.400 C 321.969 242.400,322.400 242.220,322.400 242.000 C 322.400 241.780,322.766 241.600,323.213 241.600 C 323.659 241.600,324.129 241.330,324.255 241.000 C 324.382 240.670,324.916 240.400,325.443 240.400 C 325.969 240.400,326.400 240.220,326.400 240.000 C 326.400 239.780,326.766 239.600,327.213 239.600 C 327.659 239.600,328.129 239.330,328.255 239.000 C 328.382 238.670,328.916 238.400,329.443 238.400 C 329.969 238.400,330.400 238.220,330.400 238.000 C 330.400 237.780,330.766 237.600,331.213 237.600 C 331.659 237.600,332.129 237.330,332.255 237.000 C 332.382 236.670,332.916 236.400,333.443 236.400 C 333.969 236.400,334.400 236.220,334.400 236.000 C 334.400 235.780,334.766 235.600,335.213 235.600 C 335.659 235.600,336.129 235.330,336.255 235.000 C 336.382 234.670,336.916 234.400,337.443 234.400 C 337.969 234.400,338.400 234.220,338.400 234.000 C 338.400 233.780,338.766 233.600,339.213 233.600 C 339.659 233.600,340.129 233.330,340.255 233.000 C 340.382 232.670,340.916 232.400,341.443 232.400 C 341.969 232.400,342.400 232.220,342.400 232.000 C 342.400 231.780,342.766 231.600,343.213 231.600 C 343.659 231.600,344.129 231.330,344.255 231.000 C 344.382 230.670,344.916 230.400,345.443 230.400 C 345.969 230.400,346.400 230.220,346.400 230.000 C 346.400 229.780,346.766 229.600,347.213 229.600 C 347.659 229.600,348.129 229.330,348.255 229.000 C 348.382 228.670,348.916 228.400,349.443 228.400 C 349.969 228.400,350.400 228.220,350.400 228.000 C 350.400 227.780,350.766 227.600,351.213 227.600 C 351.659 227.600,352.129 227.330,352.255 227.000 C 352.382 226.670,352.916 226.400,353.443 226.400 C 353.969 226.400,354.400 226.220,354.400 226.000 C 354.400 225.780,354.766 225.600,355.213 225.600 C 355.659 225.600,356.129 225.330,356.255 225.000 C 356.382 224.670,356.916 224.400,357.443 224.400 C 357.969 224.400,358.400 224.220,358.400 224.000 C 358.400 223.780,358.766 223.600,359.213 223.600 C 359.659 223.600,360.129 223.330,360.255 223.000 C 360.382 222.670,360.916 222.400,361.443 222.400 C 361.969 222.400,362.400 222.220,362.400 222.000 C 362.400 221.780,362.766 221.600,363.213 221.600 C 363.659 221.600,364.129 221.330,364.255 221.000 C 364.382 220.670,364.916 220.400,365.443 220.400 C 365.969 220.400,366.400 220.220,366.400 220.000 C 366.400 219.780,366.766 219.600,367.213 219.600 C 367.659 219.600,368.129 219.330,368.255 219.000 C 368.382 218.670,368.916 218.400,369.443 218.400 C 369.969 218.400,370.400 218.220,370.400 218.000 C 370.400 217.780,370.766 217.600,371.213 217.600 C 371.659 217.600,372.129 217.330,372.255 217.000 C 372.382 216.670,372.916 216.400,373.443 216.400 C 373.969 216.400,374.400 216.220,374.400 216.000 C 374.400 215.780,374.766 215.600,375.213 215.600 C 375.659 215.600,376.129 215.330,376.255 215.000 C 376.382 214.670,376.916 214.400,377.443 214.400 C 377.969 214.400,378.400 214.220,378.400 214.000 C 378.400 213.780,378.766 213.600,379.213 213.600 C 379.659 213.600,380.129 213.330,380.255 213.000 C 380.382 212.670,380.916 212.400,381.443 212.400 C 381.969 212.400,382.400 212.220,382.400 212.000 C 382.400 211.780,382.766 211.600,383.213 211.600 C 383.659 211.600,384.129 211.330,384.255 211.000 C 384.382 210.670,384.916 210.400,385.443 210.400 C 385.969 210.400,386.400 210.220,386.400 210.000 C 386.400 209.780,386.766 209.600,387.213 209.600 C 387.659 209.600,388.129 209.330,388.255 209.000 C 388.382 208.670,388.916 208.400,389.443 208.400 C 389.969 208.400,390.400 208.220,390.400 208.000 C 390.400 207.780,390.766 207.600,391.213 207.600 C 391.659 207.600,392.129 207.330,392.255 207.000 C 392.382 206.670,392.916 206.400,393.443 206.400 C 393.969 206.400,394.400 206.220,394.400 206.000 C 394.400 205.780,394.715 205.600,395.100 205.599 C 395.485 205.599,396.477 204.879,397.305 203.999 C 398.133 203.120,399.078 202.400,399.405 202.400 C 399.866 202.400,400.000 201.858,400.000 200.000 C 400.000 197.913,399.901 197.600,399.243 197.600 C 398.789 197.600,398.395 197.235,398.257 196.686 C 398.114 196.116,397.700 195.748,397.154 195.707 C 396.674 195.670,396.083 195.425,395.840 195.162 C 395.510 194.802,395.540 194.763,395.962 195.003 C 396.338 195.218,396.429 195.171,396.238 194.862 C 396.081 194.608,395.503 194.400,394.953 194.400 C 394.303 194.400,394.052 194.239,394.236 193.942 C 394.434 193.621,394.214 193.560,393.505 193.738 C 392.805 193.914,392.323 193.784,391.946 193.319 C 391.482 192.747,391.484 192.697,391.962 192.985 C 392.343 193.215,392.432 193.175,392.238 192.862 C 392.081 192.608,391.503 192.400,390.953 192.400 C 390.303 192.400,390.052 192.239,390.236 191.942 C 390.434 191.621,390.214 191.560,389.505 191.738 C 388.805 191.914,388.323 191.784,387.946 191.319 C 387.482 190.747,387.484 190.697,387.962 190.985 C 388.343 191.215,388.432 191.175,388.238 190.862 C 388.081 190.608,387.503 190.400,386.953 190.400 C 386.303 190.400,386.052 190.239,386.236 189.942 C 386.434 189.621,386.214 189.560,385.505 189.738 C 384.805 189.914,384.323 189.784,383.946 189.319 C 383.482 188.747,383.484 188.697,383.962 188.985 C 384.343 189.215,384.432 189.175,384.238 188.862 C 384.081 188.608,383.503 188.400,382.953 188.400 C 382.303 188.400,382.052 188.239,382.236 187.942 C 382.434 187.621,382.214 187.560,381.505 187.738 C 380.805 187.914,380.323 187.784,379.946 187.319 C 379.482 186.747,379.484 186.697,379.962 186.985 C 380.343 187.215,380.432 187.175,380.238 186.862 C 380.081 186.608,379.503 186.400,378.953 186.400 C 378.303 186.400,378.052 186.239,378.236 185.942 C 378.434 185.621,378.214 185.560,377.505 185.738 C 376.805 185.914,376.323 185.784,375.946 185.319 C 375.482 184.747,375.484 184.697,375.962 184.985 C 376.343 185.215,376.432 185.175,376.238 184.862 C 376.081 184.608,375.503 184.400,374.953 184.400 C 374.303 184.400,374.052 184.239,374.236 183.942 C 374.434 183.621,374.214 183.560,373.505 183.738 C 372.805 183.914,372.323 183.784,371.946 183.319 C 371.482 182.747,371.484 182.697,371.962 182.985 C 372.343 183.215,372.432 183.175,372.238 182.862 C 372.081 182.608,371.503 182.400,370.953 182.400 C 370.303 182.400,370.052 182.239,370.236 181.942 C 370.434 181.621,370.214 181.560,369.505 181.738 C 368.805 181.914,368.323 181.784,367.946 181.319 C 367.482 180.747,367.484 180.697,367.962 180.985 C 368.343 181.215,368.432 181.175,368.238 180.862 C 368.081 180.608,367.503 180.400,366.953 180.400 C 366.303 180.400,366.052 180.239,366.236 179.942 C 366.434 179.621,366.214 179.560,365.505 179.738 C 364.805 179.914,364.323 179.784,363.946 179.319 C 363.482 178.747,363.484 178.697,363.962 178.985 C 364.343 179.215,364.432 179.175,364.238 178.862 C 364.081 178.608,363.503 178.400,362.953 178.400 C 362.303 178.400,362.052 178.239,362.236 177.942 C 362.434 177.621,362.214 177.560,361.505 177.738 C 360.805 177.914,360.323 177.784,359.946 177.319 C 359.482 176.747,359.484 176.697,359.962 176.985 C 360.343 177.215,360.432 177.175,360.238 176.862 C 360.081 176.608,359.503 176.400,358.953 176.400 C 358.303 176.400,358.052 176.239,358.236 175.942 C 358.434 175.621,358.214 175.560,357.505 175.738 C 356.805 175.914,356.323 175.784,355.946 175.319 C 355.482 174.747,355.484 174.697,355.962 174.985 C 356.343 175.215,356.432 175.175,356.238 174.862 C 356.081 174.608,355.503 174.400,354.953 174.400 C 354.303 174.400,354.052 174.239,354.236 173.942 C 354.434 173.621,354.214 173.560,353.505 173.738 C 352.805 173.914,352.323 173.784,351.946 173.319 C 351.482 172.747,351.484 172.697,351.962 172.985 C 352.343 173.215,352.432 173.175,352.238 172.862 C 352.081 172.608,351.503 172.400,350.953 172.400 C 350.303 172.400,350.052 172.239,350.236 171.942 C 350.434 171.621,350.214 171.560,349.505 171.738 C 348.805 171.914,348.323 171.784,347.946 171.319 C 347.482 170.747,347.484 170.697,347.962 170.985 C 348.343 171.215,348.432 171.175,348.238 170.862 C 348.081 170.608,347.503 170.400,346.953 170.400 C 346.303 170.400,346.052 170.239,346.236 169.942 C 346.434 169.621,346.214 169.560,345.505 169.738 C 344.805 169.914,344.323 169.784,343.946 169.319 C 343.482 168.747,343.484 168.697,343.962 168.985 C 344.343 169.215,344.432 169.175,344.238 168.862 C 344.081 168.608,343.503 168.400,342.953 168.400 C 342.303 168.400,342.052 168.239,342.236 167.942 C 342.434 167.621,342.214 167.560,341.505 167.738 C 340.805 167.914,340.323 167.784,339.946 167.319 C 339.482 166.747,339.484 166.697,339.962 166.985 C 340.343 167.215,340.432 167.175,340.238 166.862 C 340.081 166.608,339.503 166.400,338.953 166.400 C 338.303 166.400,338.052 166.239,338.236 165.942 C 338.434 165.621,338.214 165.560,337.505 165.738 C 336.805 165.914,336.323 165.784,335.946 165.319 C 335.482 164.747,335.484 164.697,335.962 164.985 C 336.343 165.215,336.432 165.175,336.238 164.862 C 336.081 164.608,335.503 164.400,334.953 164.400 C 334.303 164.400,334.052 164.239,334.236 163.942 C 334.434 163.621,334.214 163.560,333.505 163.738 C 332.805 163.914,332.323 163.784,331.946 163.319 C 331.482 162.747,331.484 162.697,331.962 162.985 C 332.343 163.215,332.432 163.175,332.238 162.862 C 332.081 162.608,331.503 162.400,330.953 162.400 C 330.303 162.400,330.052 162.239,330.236 161.942 C 330.434 161.621,330.214 161.560,329.505 161.738 C 328.805 161.914,328.323 161.784,327.946 161.319 C 327.482 160.747,327.484 160.697,327.962 160.985 C 328.343 161.215,328.432 161.175,328.238 160.862 C 328.081 160.608,327.503 160.400,326.953 160.400 C 326.303 160.400,326.052 160.239,326.236 159.942 C 326.434 159.621,326.214 159.560,325.505 159.738 C 324.805 159.914,324.323 159.784,323.946 159.319 C 323.482 158.747,323.484 158.697,323.962 158.985 C 324.343 159.215,324.432 159.175,324.238 158.862 C 324.081 158.608,323.503 158.400,322.953 158.400 C 322.303 158.400,322.052 158.239,322.236 157.942 C 322.434 157.621,322.214 157.560,321.505 157.738 C 320.805 157.914,320.323 157.784,319.946 157.319 C 319.482 156.747,319.484 156.697,319.962 156.985 C 320.343 157.215,320.432 157.175,320.238 156.862 C 320.081 156.608,319.503 156.400,318.953 156.400 C 318.355 156.400,318.057 156.231,318.213 155.979 C 318.377 155.714,318.057 155.603,317.345 155.679 C 316.558 155.763,316.215 155.619,316.209 155.200 C 316.204 154.862,315.807 154.578,315.300 154.550 C 312.964 154.420,312.957 154.418,313.600 153.963 C 314.068 153.631,313.955 153.577,313.086 153.716 C 312.283 153.845,311.859 153.684,311.570 153.144 C 311.275 152.593,310.905 152.459,310.179 152.641 C 309.382 152.841,309.239 152.764,309.438 152.244 C 309.625 151.758,309.441 151.600,308.686 151.600 C 308.136 151.600,307.580 151.326,307.452 150.990 C 307.287 150.562,306.916 150.456,306.204 150.635 C 305.383 150.841,305.238 150.767,305.438 150.244 C 305.627 149.753,305.437 149.600,304.643 149.600 C 304.069 149.600,303.600 149.409,303.600 149.176 C 303.600 148.943,303.420 148.864,303.200 149.000 C 302.980 149.136,302.800 149.073,302.800 148.861 C 302.800 148.649,302.460 148.564,302.045 148.672 C 301.630 148.781,301.152 148.646,300.983 148.373 C 300.785 148.053,300.841 147.978,301.138 148.162 C 301.392 148.319,301.600 148.257,301.600 148.024 C 301.600 147.791,301.150 147.600,300.600 147.600 C 300.050 147.600,299.600 147.409,299.600 147.176 C 299.600 146.943,299.420 146.864,299.200 147.000 C 298.980 147.136,298.800 147.073,298.800 146.861 C 298.800 146.649,298.460 146.564,298.045 146.672 C 297.630 146.781,297.152 146.646,296.983 146.373 C 296.785 146.053,296.841 145.978,297.138 146.162 C 297.392 146.319,297.600 146.257,297.600 146.024 C 297.600 145.791,297.150 145.600,296.600 145.600 C 296.050 145.600,295.600 145.409,295.600 145.176 C 295.600 144.943,295.420 144.864,295.200 145.000 C 294.980 145.136,294.800 145.073,294.800 144.861 C 294.800 144.649,294.460 144.564,294.045 144.672 C 293.630 144.781,293.152 144.646,292.983 144.373 C 292.785 144.053,292.841 143.978,293.138 144.162 C 293.392 144.319,293.600 144.257,293.600 144.024 C 293.600 143.791,293.150 143.600,292.600 143.600 C 292.050 143.600,291.600 143.409,291.600 143.176 C 291.600 142.943,291.420 142.864,291.200 143.000 C 290.980 143.136,290.800 143.073,290.800 142.861 C 290.800 142.649,290.460 142.564,290.045 142.672 C 289.630 142.781,289.152 142.646,288.983 142.373 C 288.785 142.053,288.841 141.978,289.138 142.162 C 289.392 142.319,289.600 142.257,289.600 142.024 C 289.600 141.791,289.150 141.600,288.600 141.600 C 288.050 141.600,287.600 141.409,287.600 141.176 C 287.600 140.943,287.420 140.864,287.200 141.000 C 286.980 141.136,286.800 141.073,286.800 140.861 C 286.800 140.649,286.460 140.564,286.045 140.672 C 285.630 140.781,285.152 140.646,284.983 140.373 C 284.785 140.053,284.841 139.978,285.138 140.162 C 285.392 140.319,285.600 140.257,285.600 140.024 C 285.600 139.791,285.150 139.600,284.600 139.600 C 284.050 139.600,283.600 139.409,283.600 139.176 C 283.600 138.943,283.420 138.864,283.200 139.000 C 282.980 139.136,282.800 139.073,282.800 138.861 C 282.800 138.649,282.460 138.564,282.045 138.672 C 281.630 138.781,281.152 138.646,280.983 138.373 C 280.785 138.053,280.841 137.978,281.138 138.162 C 281.392 138.319,281.600 138.257,281.600 138.024 C 281.600 137.791,281.150 137.600,280.600 137.600 C 280.050 137.600,279.600 137.409,279.600 137.176 C 279.600 136.943,279.420 136.864,279.200 137.000 C 278.980 137.136,278.800 137.073,278.800 136.861 C 278.800 136.649,278.460 136.564,278.045 136.672 C 277.630 136.781,277.152 136.646,276.983 136.373 C 276.785 136.053,276.841 135.978,277.138 136.162 C 277.392 136.319,277.600 136.257,277.600 136.024 C 277.600 135.791,277.150 135.600,276.600 135.600 C 276.050 135.600,275.600 135.409,275.600 135.176 C 275.600 134.943,275.420 134.864,275.200 135.000 C 274.980 135.136,274.800 135.073,274.800 134.861 C 274.800 134.649,274.460 134.564,274.045 134.672 C 273.630 134.781,273.152 134.646,272.983 134.373 C 272.785 134.053,272.841 133.978,273.138 134.162 C 273.392 134.319,273.600 134.257,273.600 134.024 C 273.600 133.791,273.150 133.600,272.600 133.600 C 272.050 133.600,271.600 133.409,271.600 133.176 C 271.600 132.943,271.420 132.864,271.200 133.000 C 270.980 133.136,270.800 133.073,270.800 132.861 C 270.800 132.649,270.460 132.564,270.045 132.672 C 269.630 132.781,269.152 132.646,268.983 132.373 C 268.785 132.053,268.841 131.978,269.138 132.162 C 269.392 132.319,269.600 132.257,269.600 132.024 C 269.600 131.791,269.150 131.600,268.600 131.600 C 268.050 131.600,267.600 131.409,267.600 131.176 C 267.600 130.943,267.420 130.864,267.200 131.000 C 266.980 131.136,266.800 131.073,266.800 130.861 C 266.800 130.649,266.460 130.564,266.045 130.672 C 265.630 130.781,265.152 130.646,264.983 130.373 C 264.785 130.053,264.841 129.978,265.138 130.162 C 265.392 130.319,265.600 130.257,265.600 130.024 C 265.600 129.791,265.150 129.600,264.600 129.600 C 264.050 129.600,263.600 129.409,263.600 129.176 C 263.600 128.943,263.420 128.864,263.200 129.000 C 262.980 129.136,262.800 129.073,262.800 128.861 C 262.800 128.649,262.460 128.564,262.045 128.672 C 261.630 128.781,261.152 128.646,260.983 128.373 C 260.785 128.053,260.841 127.978,261.138 128.162 C 261.392 128.319,261.600 128.257,261.600 128.024 C 261.600 127.791,261.150 127.600,260.600 127.600 C 260.050 127.600,259.600 127.409,259.600 127.176 C 259.600 126.943,259.420 126.864,259.200 127.000 C 258.980 127.136,258.800 127.073,258.800 126.861 C 258.800 126.649,258.460 126.564,258.045 126.672 C 257.630 126.781,257.152 126.646,256.983 126.373 C 256.785 126.053,256.841 125.978,257.138 126.162 C 257.392 126.319,257.600 126.257,257.600 126.024 C 257.600 125.791,257.150 125.600,256.600 125.600 C 256.050 125.600,255.600 125.409,255.600 125.176 C 255.600 124.943,255.420 124.864,255.200 125.000 C 254.980 125.136,254.800 125.073,254.800 124.861 C 254.800 124.649,254.437 124.570,253.994 124.686 C 253.374 124.848,253.246 124.747,253.437 124.248 C 253.625 123.757,253.443 123.600,252.686 123.600 C 252.136 123.600,251.580 123.326,251.452 122.990 C 251.287 122.562,250.916 122.456,250.204 122.635 C 249.383 122.841,249.238 122.767,249.438 122.244 C 249.625 121.758,249.441 121.600,248.686 121.600 C 248.136 121.600,247.580 121.326,247.452 120.990 C 247.287 120.562,246.916 120.456,246.204 120.635 C 245.383 120.841,245.238 120.767,245.438 120.244 C 245.625 119.758,245.441 119.600,244.686 119.600 C 244.136 119.600,243.580 119.326,243.452 118.990 C 243.287 118.562,242.916 118.456,242.204 118.635 C 241.383 118.841,241.238 118.767,241.438 118.244 C 241.625 117.758,241.441 117.600,240.686 117.600 C 240.136 117.600,239.580 117.326,239.452 116.990 C 239.287 116.562,238.916 116.456,238.204 116.635 C 237.383 116.841,237.238 116.767,237.438 116.244 C 237.625 115.758,237.441 115.600,236.686 115.600 C 236.136 115.600,235.580 115.326,235.452 114.990 C 235.287 114.562,234.916 114.456,234.204 114.635 C 233.383 114.841,233.238 114.767,233.438 114.244 C 233.625 113.758,233.441 113.600,232.686 113.600 C 232.136 113.600,231.580 113.326,231.452 112.990 C 231.287 112.562,230.916 112.456,230.204 112.635 C 229.383 112.841,229.238 112.767,229.438 112.244 C 229.625 111.758,229.441 111.600,228.686 111.600 C 228.136 111.600,227.580 111.326,227.452 110.990 C 227.287 110.562,226.916 110.456,226.204 110.635 C 225.383 110.841,225.238 110.767,225.438 110.244 C 225.625 109.758,225.441 109.600,224.686 109.600 C 224.136 109.600,223.580 109.326,223.452 108.990 C 223.287 108.562,222.916 108.456,222.204 108.635 C 221.383 108.841,221.238 108.767,221.438 108.244 C 221.625 107.758,221.441 107.600,220.686 107.600 C 220.136 107.600,219.580 107.326,219.452 106.990 C 219.287 106.562,218.916 106.456,218.204 106.635 C 217.383 106.841,217.238 106.767,217.438 106.244 C 217.625 105.758,217.441 105.600,216.686 105.600 C 216.136 105.600,215.580 105.326,215.452 104.990 C 215.287 104.562,214.916 104.456,214.204 104.635 C 213.383 104.841,213.238 104.767,213.438 104.244 C 213.625 103.758,213.441 103.600,212.686 103.600 C 212.136 103.600,211.580 103.326,211.452 102.990 C 211.287 102.562,210.916 102.456,210.204 102.635 C 209.383 102.841,209.238 102.767,209.438 102.244 C 209.625 101.758,209.441 101.600,208.686 101.600 C 208.136 101.600,207.580 101.326,207.452 100.990 C 207.287 100.562,206.916 100.456,206.204 100.635 C 205.383 100.841,205.238 100.767,205.438 100.244 C 205.633 99.737,205.421 99.600,204.443 99.600 C 203.759 99.600,203.221 99.465,203.247 99.300 C 203.374 98.497,203.139 98.351,202.523 98.851 C 202.063 99.224,201.943 99.240,202.147 98.900 C 202.361 98.543,202.091 98.400,201.200 98.400 C 200.365 98.400,200.046 98.249,200.236 97.942 C 200.434 97.621,200.214 97.560,199.505 97.738 C 198.805 97.914,198.323 97.784,197.946 97.319 C 197.482 96.747,197.484 96.697,197.962 96.985 C 198.343 97.215,198.432 97.175,198.238 96.862 C 198.081 96.608,197.503 96.400,196.953 96.400 C 196.303 96.400,196.052 96.239,196.236 95.942 C 196.434 95.621,196.214 95.560,195.505 95.738 C 194.805 95.914,194.323 95.784,193.946 95.319 C 193.482 94.747,193.484 94.697,193.962 94.985 C 194.343 95.215,194.432 95.175,194.238 94.862 C 194.081 94.608,193.503 94.400,192.953 94.400 C 192.303 94.400,192.052 94.239,192.236 93.942 C 192.434 93.621,192.214 93.560,191.505 93.738 C 190.805 93.914,190.323 93.784,189.946 93.319 C 189.482 92.747,189.484 92.697,189.962 92.985 C 190.343 93.215,190.432 93.175,190.238 92.862 C 190.081 92.608,189.503 92.400,188.953 92.400 C 188.303 92.400,188.052 92.239,188.236 91.942 C 188.434 91.621,188.214 91.560,187.505 91.738 C 186.805 91.914,186.323 91.784,185.946 91.319 C 185.482 90.747,185.484 90.697,185.962 90.985 C 186.343 91.215,186.432 91.175,186.238 90.862 C 186.081 90.608,185.503 90.400,184.953 90.400 C 184.303 90.400,184.052 90.239,184.236 89.942 C 184.434 89.621,184.214 89.560,183.505 89.738 C 182.805 89.914,182.323 89.784,181.946 89.319 C 181.482 88.747,181.484 88.697,181.962 88.985 C 182.343 89.215,182.432 89.175,182.238 88.862 C 182.081 88.608,181.503 88.400,180.953 88.400 C 180.303 88.400,180.052 88.239,180.236 87.942 C 180.434 87.621,180.214 87.560,179.505 87.738 C 178.805 87.914,178.323 87.784,177.946 87.319 C 177.482 86.747,177.484 86.697,177.962 86.985 C 178.343 87.215,178.432 87.175,178.238 86.862 C 178.081 86.608,177.503 86.400,176.953 86.400 C 176.303 86.400,176.052 86.239,176.236 85.942 C 176.434 85.621,176.214 85.560,175.505 85.738 C 174.805 85.914,174.323 85.784,173.946 85.319 C 173.482 84.747,173.484 84.697,173.962 84.985 C 174.343 85.215,174.432 85.175,174.238 84.862 C 174.081 84.608,173.503 84.400,172.953 84.400 C 172.303 84.400,172.052 84.239,172.236 83.942 C 172.434 83.621,172.214 83.560,171.505 83.738 C 170.805 83.914,170.323 83.784,169.946 83.319 C 169.482 82.747,169.484 82.697,169.962 82.985 C 170.343 83.215,170.432 83.175,170.238 82.862 C 170.081 82.608,169.503 82.400,168.953 82.400 C 168.303 82.400,168.052 82.239,168.236 81.942 C 168.434 81.621,168.214 81.560,167.505 81.738 C 166.805 81.914,166.323 81.784,165.946 81.319 C 165.482 80.747,165.484 80.697,165.962 80.985 C 166.343 81.215,166.432 81.175,166.238 80.862 C 166.081 80.608,165.503 80.400,164.953 80.400 C 164.303 80.400,164.052 80.239,164.236 79.942 C 164.434 79.621,164.214 79.560,163.505 79.738 C 162.805 79.914,162.323 79.784,161.946 79.319 C 161.482 78.747,161.484 78.697,161.962 78.985 C 162.343 79.215,162.432 79.175,162.238 78.862 C 162.081 78.608,161.503 78.400,160.953 78.400 C 160.303 78.400,160.052 78.239,160.236 77.942 C 160.434 77.621,160.214 77.560,159.505 77.738 C 158.805 77.914,158.323 77.784,157.946 77.319 C 157.482 76.747,157.484 76.697,157.962 76.985 C 158.343 77.215,158.432 77.175,158.238 76.862 C 158.081 76.608,157.503 76.400,156.953 76.400 C 156.303 76.400,156.052 76.239,156.236 75.942 C 156.434 75.621,156.214 75.560,155.505 75.738 C 154.805 75.914,154.323 75.784,153.946 75.319 C 153.482 74.747,153.484 74.697,153.962 74.985 C 154.343 75.215,154.432 75.175,154.238 74.862 C 154.081 74.608,153.503 74.400,152.953 74.400 C 152.303 74.400,152.052 74.239,152.236 73.942 C 152.434 73.621,152.214 73.560,151.505 73.738 C 150.805 73.914,150.323 73.784,149.946 73.319 C 149.482 72.747,149.484 72.697,149.962 72.985 C 150.343 73.215,150.432 73.175,150.238 72.862 C 150.081 72.608,149.503 72.400,148.953 72.400 C 148.303 72.400,148.052 72.239,148.236 71.942 C 148.434 71.621,148.214 71.560,147.505 71.738 C 146.805 71.914,146.323 71.784,145.946 71.319 C 145.482 70.747,145.484 70.697,145.962 70.985 C 146.343 71.215,146.432 71.175,146.238 70.862 C 146.081 70.608,145.503 70.400,144.953 70.400 C 144.303 70.400,144.052 70.239,144.236 69.942 C 144.434 69.621,144.214 69.560,143.505 69.738 C 142.805 69.914,142.323 69.784,141.946 69.319 C 141.482 68.747,141.484 68.697,141.962 68.985 C 142.343 69.215,142.432 69.175,142.238 68.862 C 142.081 68.608,141.503 68.400,140.953 68.400 C 140.303 68.400,140.052 68.239,140.236 67.942 C 140.434 67.621,140.214 67.560,139.505 67.738 C 138.805 67.914,138.323 67.784,137.946 67.319 C 137.482 66.747,137.484 66.697,137.962 66.985 C 138.343 67.215,138.432 67.175,138.238 66.862 C 138.081 66.608,137.503 66.400,136.953 66.400 C 136.303 66.400,136.052 66.239,136.236 65.942 C 136.434 65.621,136.214 65.560,135.505 65.738 C 134.805 65.914,134.323 65.784,133.946 65.319 C 133.482 64.747,133.484 64.697,133.962 64.985 C 134.343 65.215,134.432 65.175,134.238 64.862 C 134.081 64.608,133.503 64.400,132.953 64.400 C 132.303 64.400,132.052 64.239,132.236 63.942 C 132.434 63.621,132.214 63.560,131.505 63.738 C 130.805 63.914,130.323 63.784,129.946 63.319 C 129.482 62.747,129.484 62.697,129.962 62.985 C 130.343 63.215,130.432 63.175,130.238 62.862 C 130.081 62.608,129.503 62.400,128.953 62.400 C 128.303 62.400,128.052 62.239,128.236 61.942 C 128.434 61.621,128.214 61.560,127.505 61.738 C 126.805 61.914,126.323 61.784,125.946 61.319 C 125.482 60.747,125.484 60.697,125.962 60.985 C 126.343 61.215,126.432 61.175,126.238 60.862 C 126.081 60.608,125.503 60.400,124.953 60.400 C 124.303 60.400,124.052 60.239,124.236 59.942 C 124.434 59.621,124.214 59.560,123.505 59.738 C 122.805 59.914,122.323 59.784,121.946 59.319 C 121.482 58.747,121.484 58.697,121.962 58.985 C 122.343 59.215,122.432 59.175,122.238 58.862 C 122.081 58.608,121.503 58.400,120.953 58.400 C 120.303 58.400,120.052 58.239,120.236 57.942 C 120.434 57.621,120.214 57.560,119.505 57.738 C 118.805 57.914,118.323 57.784,117.946 57.319 C 117.482 56.747,117.484 56.697,117.962 56.985 C 118.343 57.215,118.432 57.175,118.238 56.862 C 118.081 56.608,117.503 56.400,116.953 56.400 C 116.303 56.400,116.052 56.239,116.236 55.942 C 116.434 55.621,116.214 55.560,115.505 55.738 C 114.805 55.914,114.323 55.784,113.946 55.319 C 113.482 54.747,113.484 54.697,113.962 54.985 C 114.343 55.215,114.432 55.175,114.238 54.862 C 114.081 54.608,113.503 54.400,112.953 54.400 C 112.303 54.400,112.052 54.239,112.236 53.942 C 112.434 53.621,112.214 53.560,111.505 53.738 C 110.805 53.914,110.323 53.784,109.946 53.319 C 109.482 52.747,109.484 52.697,109.962 52.985 C 110.343 53.215,110.432 53.175,110.238 52.862 C 110.081 52.608,109.503 52.400,108.953 52.400 C 108.303 52.400,108.052 52.239,108.236 51.942 C 108.434 51.621,108.214 51.560,107.505 51.738 C 106.805 51.914,106.323 51.784,105.946 51.319 C 105.482 50.747,105.484 50.697,105.962 50.985 C 106.343 51.215,106.432 51.175,106.238 50.862 C 106.081 50.608,105.503 50.400,104.953 50.400 C 104.303 50.400,104.052 50.239,104.236 49.942 C 104.434 49.621,104.214 49.560,103.505 49.738 C 102.805 49.914,102.323 49.784,101.946 49.319 C 101.482 48.747,101.484 48.697,101.962 48.985 C 102.343 49.215,102.432 49.175,102.238 48.862 C 102.081 48.608,101.503 48.400,100.953 48.400 C 100.303 48.400,100.052 48.239,100.236 47.942 C 100.434 47.621,100.214 47.560,99.505 47.738 C 98.805 47.914,98.323 47.784,97.946 47.319 C 97.482 46.747,97.484 46.697,97.962 46.985 C 98.343 47.215,98.432 47.175,98.238 46.862 C 98.081 46.608,97.503 46.400,96.953 46.400 C 96.355 46.400,96.057 46.231,96.213 45.979 C 96.377 45.714,96.057 45.603,95.345 45.679 C 94.558 45.763,94.215 45.619,94.209 45.200 C 94.204 44.862,93.807 44.578,93.300 44.550 C 90.964 44.420,90.957 44.418,91.600 43.963 C 92.068 43.631,91.955 43.577,91.086 43.716 C 90.283 43.845,89.859 43.684,89.570 43.144 C 89.275 42.593,88.905 42.459,88.179 42.641 C 87.382 42.841,87.239 42.764,87.438 42.244 C 87.625 41.758,87.441 41.600,86.686 41.600 C 86.136 41.600,85.580 41.326,85.452 40.990 C 85.287 40.562,84.916 40.456,84.204 40.635 C 83.383 40.841,83.238 40.767,83.438 40.244 C 83.625 39.758,83.441 39.600,82.686 39.600 C 82.136 39.600,81.580 39.326,81.452 38.990 C 81.287 38.562,80.916 38.456,80.204 38.635 C 79.383 38.841,79.238 38.767,79.438 38.244 C 79.625 37.758,79.441 37.600,78.686 37.600 C 78.136 37.600,77.580 37.326,77.452 36.990 C 77.287 36.562,76.916 36.456,76.204 36.635 C 75.383 36.841,75.238 36.767,75.438 36.244 C 75.625 35.758,75.441 35.600,74.686 35.600 C 74.136 35.600,73.580 35.326,73.452 34.990 C 73.287 34.562,72.916 34.456,72.204 34.635 C 71.383 34.841,71.238 34.767,71.438 34.244 C 71.625 33.758,71.441 33.600,70.686 33.600 C 70.136 33.600,69.580 33.326,69.452 32.990 C 69.287 32.562,68.916 32.456,68.204 32.635 C 67.383 32.841,67.238 32.767,67.438 32.244 C 67.625 31.758,67.441 31.600,66.686 31.600 C 66.136 31.600,65.580 31.326,65.452 30.990 C 65.287 30.562,64.916 30.456,64.204 30.635 C 63.383 30.841,63.238 30.767,63.438 30.244 C 63.625 29.758,63.441 29.600,62.686 29.600 C 62.136 29.600,61.580 29.326,61.452 28.990 C 61.287 28.562,60.916 28.456,60.204 28.635 C 59.383 28.841,59.238 28.767,59.438 28.244 C 59.625 27.758,59.441 27.600,58.686 27.600 C 58.136 27.600,57.580 27.326,57.452 26.990 C 57.287 26.562,56.916 26.456,56.204 26.635 C 55.383 26.841,55.238 26.767,55.438 26.244 C 55.625 25.758,55.441 25.600,54.686 25.600 C 54.136 25.600,53.580 25.326,53.452 24.990 C 53.287 24.562,52.916 24.456,52.204 24.635 C 51.383 24.841,51.238 24.767,51.438 24.244 C 51.625 23.758,51.441 23.600,50.686 23.600 C 50.136 23.600,49.580 23.326,49.452 22.990 C 49.287 22.562,48.916 22.456,48.204 22.635 C 47.383 22.841,47.238 22.767,47.438 22.244 C 47.625 21.758,47.441 21.600,46.686 21.600 C 46.136 21.600,45.580 21.326,45.452 20.990 C 45.287 20.562,44.916 20.456,44.204 20.635 C 43.383 20.841,43.238 20.767,43.438 20.244 C 43.625 19.758,43.441 19.600,42.686 19.600 C 42.136 19.600,41.580 19.326,41.452 18.990 C 41.287 18.562,40.916 18.456,40.204 18.635 C 39.383 18.841,39.238 18.767,39.438 18.244 C 39.625 17.758,39.441 17.600,38.686 17.600 C 38.136 17.600,37.580 17.326,37.452 16.990 C 37.287 16.562,36.916 16.456,36.204 16.635 C 35.383 16.841,35.238 16.767,35.438 16.244 C 35.625 15.758,35.441 15.600,34.686 15.600 C 34.136 15.600,33.580 15.326,33.452 14.990 C 33.287 14.562,32.916 14.456,32.204 14.635 C 31.383 14.841,31.238 14.767,31.438 14.244 C 31.625 13.758,31.441 13.600,30.686 13.600 C 30.136 13.600,29.580 13.326,29.452 12.990 C 29.287 12.562,28.916 12.456,28.204 12.635 C 27.383 12.841,27.238 12.767,27.438 12.244 C 27.625 11.758,27.441 11.600,26.686 11.600 C 26.136 11.600,25.580 11.326,25.452 10.990 C 25.287 10.562,24.916 10.456,24.204 10.635 C 23.383 10.841,23.238 10.767,23.438 10.244 C 23.625 9.758,23.441 9.600,22.686 9.600 C 22.136 9.600,21.580 9.326,21.452 8.990 C 21.287 8.562,20.916 8.456,20.204 8.635 C 19.383 8.841,19.238 8.767,19.438 8.244 C 19.625 7.758,19.441 7.600,18.686 7.600 C 18.136 7.600,17.580 7.326,17.452 6.990 C 17.287 6.562,16.916 6.456,16.204 6.635 C 15.383 6.841,15.238 6.767,15.438 6.244 C 15.625 5.758,15.441 5.600,14.686 5.600 C 14.136 5.600,13.580 5.326,13.452 4.990 C 13.287 4.562,12.916 4.456,12.204 4.635 C 11.383 4.841,11.238 4.767,11.438 4.244 C 11.625 3.758,11.441 3.600,10.686 3.600 C 10.136 3.600,9.580 3.326,9.452 2.990 C 9.287 2.562,8.916 2.456,8.204 2.635 C 7.383 2.841,7.238 2.767,7.438 2.244 C 7.625 1.758,7.441 1.600,6.686 1.600 C 6.136 1.600,5.580 1.326,5.452 0.990 C 5.288 0.563,4.916 0.456,4.209 0.634 C 3.585 0.790,3.200 0.718,3.200 0.443 C 3.200 0.193,2.504 0.000,1.600 0.000 L 0.000 0.000 0.000 200.048 " stroke="none" fill="#e4dcd4" fill-rule="evenodd"></path><path id="path1" d="M93.860 45.267 C 94.225 45.670,94.721 45.995,94.962 45.988 C 95.203 45.981,95.081 45.790,94.692 45.563 C 94.302 45.336,94.069 45.012,94.174 44.842 C 94.279 44.672,94.102 44.533,93.781 44.533 C 93.298 44.533,93.311 44.660,93.860 45.267 M315.860 155.267 C 316.225 155.670,316.721 155.995,316.962 155.988 C 317.203 155.981,317.081 155.790,316.692 155.563 C 316.302 155.336,316.069 155.012,316.174 154.842 C 316.279 154.672,316.102 154.533,315.781 154.533 C 315.298 154.533,315.311 154.660,315.860 155.267 " stroke="none" fill="#e8dcd4" fill-rule="evenodd"></path><path id="path2" d="M93.860 45.267 C 94.225 45.670,94.721 45.995,94.962 45.988 C 95.203 45.981,95.081 45.790,94.692 45.563 C 94.302 45.336,94.069 45.012,94.174 44.842 C 94.279 44.672,94.102 44.533,93.781 44.533 C 93.298 44.533,93.311 44.660,93.860 45.267 M315.860 155.267 C 316.225 155.670,316.721 155.995,316.962 155.988 C 317.203 155.981,317.081 155.790,316.692 155.563 C 316.302 155.336,316.069 155.012,316.174 154.842 C 316.279 154.672,316.102 154.533,315.781 154.533 C 315.298 154.533,315.311 154.660,315.860 155.267 " stroke="none" fill="#e8dcd4" fill-rule="evenodd"></path><path id="path3" d="M93.860 45.267 C 94.225 45.670,94.721 45.995,94.962 45.988 C 95.203 45.981,95.081 45.790,94.692 45.563 C 94.302 45.336,94.069 45.012,94.174 44.842 C 94.279 44.672,94.102 44.533,93.781 44.533 C 93.298 44.533,93.311 44.660,93.860 45.267 M315.860 155.267 C 316.225 155.670,316.721 155.995,316.962 155.988 C 317.203 155.981,317.081 155.790,316.692 155.563 C 316.302 155.336,316.069 155.012,316.174 154.842 C 316.279 154.672,316.102 154.533,315.781 154.533 C 315.298 154.533,315.311 154.660,315.860 155.267 " stroke="none" fill="#e8dcd4" fill-rule="evenodd"></path><path id="path4" d="M93.860 45.267 C 94.225 45.670,94.721 45.995,94.962 45.988 C 95.203 45.981,95.081 45.790,94.692 45.563 C 94.302 45.336,94.069 45.012,94.174 44.842 C 94.279 44.672,94.102 44.533,93.781 44.533 C 93.298 44.533,93.311 44.660,93.860 45.267 M315.860 155.267 C 316.225 155.670,316.721 155.995,316.962 155.988 C 317.203 155.981,317.081 155.790,316.692 155.563 C 316.302 155.336,316.069 155.012,316.174 154.842 C 316.279 154.672,316.102 154.533,315.781 154.533 C 315.298 154.533,315.311 154.660,315.860 155.267 " stroke="none" fill="#e8dcd4" fill-rule="evenodd"></path></g></svg>