<?xml version="1.0" encoding="UTF-8" standalone="no"?>
<!DOCTYPE svg PUBLIC "-//W3C//DTD SVG 1.1//EN" "http://www.w3.org/Graphics/SVG/1.1/DTD/svg11.dtd">
<svg width="170.10" height="170.10" viewBox="0.00 0.00 945.00 945.00" xmlns="http://www.w3.org/2000/svg" xmlns:xlink="http://www.w3.org/1999/xlink">
<g stroke-linecap="round" transform="translate(-516.00, -432.00)" id="Layer_2">
<path d="M872.50,489.50 C874.42,488.61 892.91,490.66 901.58,492.88 C910.01,495.06 923.08,500.01 929.98,503.86 C933.97,506.14 936.99,508.22 940.50,511.50 C941.59,512.53 948.84,518.60 949.63,520.43 C950.72,523.00 962.87,538.83 964.50,542.50 C965.09,543.84 967.39,550.80 968.90,552.56 C971.02,555.02 973.43,560.72 974.62,564.58 C976.52,571.03 978.33,576.39 979.50,578.50 C980.60,580.41 982.65,582.78 983.99,583.61 C986.06,584.84 991.89,585.92 995.04,585.89 C995.49,585.88 1019.82,585.08 1024.12,585.76 C1027.93,586.40 1033.56,588.89 1037.44,591.77 C1038.61,592.61 1041.12,594.44 1041.50,594.50 C1042.16,594.62 1042.89,594.23 1043.50,594.50 C1043.71,594.60 1047.66,602.47 1048.32,605.56 C1048.93,608.64 1048.13,615.57 1046.99,619.81 C1046.64,621.02 1045.10,625.62 1044.50,626.50 C1043.49,627.99 1039.61,632.00 1039.50,632.50 C1039.30,633.47 1041.49,638.46 1041.50,638.50 C1041.65,639.15 1041.22,639.90 1041.50,640.50 C1042.14,641.78 1047.89,643.62 1053.26,644.56 C1070.71,647.31 1098.30,649.79 1101.13,650.11 C1104.88,650.57 1111.22,653.92 1113.50,654.50 C1116.37,655.23 1137.95,658.17 1142.90,659.00 C1144.84,659.33 1147.89,660.14 1148.89,660.69 C1149.47,661.01 1151.25,662.61 1153.50,663.50 C1155.58,664.31 1164.48,666.60 1168.63,667.65 C1171.46,668.40 1177.39,671.56 1180.47,672.41 C1184.40,673.49 1195.24,676.33 1195.50,676.50 C1196.29,677.02 1197.92,678.86 1199.79,679.82 C1209.62,684.90 1213.31,685.28 1213.50,685.50 C1214.28,686.42 1215.86,688.90 1217.94,690.03 C1219.03,690.62 1229.31,696.54 1233.55,698.93 C1239.06,702.16 1241.74,704.21 1244.50,707.50 C1245.09,708.11 1251.49,712.50 1254.37,715.20 C1258.84,719.45 1269.71,730.49 1275.32,736.62 C1281.02,743.15 1292.99,757.65 1294.14,760.80 C1294.44,761.61 1294.98,764.32 1295.50,765.50 C1295.51,765.52 1299.81,772.02 1301.83,776.09 C1311.65,796.34 1315.35,809.56 1315.87,811.65 C1316.24,813.17 1317.99,814.71 1318.50,815.50 C1318.63,815.71 1322.37,838.36 1324.42,843.97 C1327.30,851.85 1329.03,862.98 1330.10,873.82 C1331.30,889.66 1334.57,928.32 1334.54,931.25 C1334.34,948.26 1335.78,968.01 1336.38,975.18 C1336.59,977.90 1335.44,983.99 1335.35,985.99 C1335.02,993.26 1334.33,1009.43 1333.97,1018.34 C1333.48,1028.35 1332.42,1033.30 1332.50,1033.50 C1332.67,1033.94 1333.49,1034.03 1333.50,1034.50 C1333.52,1035.25 1332.40,1036.84 1332.52,1038.76 C1332.53,1038.99 1333.33,1063.05 1333.05,1069.43 C1332.84,1073.70 1331.79,1082.05 1330.72,1085.92 C1329.96,1088.61 1326.59,1096.17 1325.45,1099.47 C1323.33,1105.72 1322.07,1119.33 1319.56,1127.85 C1317.79,1133.64 1309.82,1155.95 1309.50,1156.50 C1308.00,1158.50 1306.08,1161.22 1304.75,1164.92 C1302.99,1169.82 1293.38,1187.57 1289.84,1193.02 C1284.61,1201.01 1263.52,1225.41 1261.00,1228.07 C1259.65,1229.48 1255.70,1231.22 1253.54,1233.22 C1251.03,1235.54 1245.21,1241.11 1242.44,1243.75 C1240.19,1245.86 1235.97,1247.76 1234.19,1249.00 C1224.86,1255.52 1215.31,1260.00 1214.50,1260.50 C1212.50,1262.00 1210.11,1263.74 1204.99,1266.16 C1201.06,1267.94 1191.95,1271.94 1190.50,1272.50 C1186.82,1273.91 1180.70,1275.54 1178.50,1276.50 C1177.09,1277.12 1169.85,1281.05 1164.50,1282.50 C1160.95,1283.45 1111.27,1291.25 1104.16,1291.97 C1096.55,1292.72 1064.77,1292.50 1051.82,1292.48 C1017.92,1292.50 947.67,1292.55 911.33,1292.57 C898.54,1292.54 876.93,1292.49 858.68,1291.55 C855.31,1291.43 850.89,1291.88 848.50,1291.50 C847.15,1291.28 825.71,1286.13 817.34,1284.12 C812.31,1282.98 806.95,1282.35 804.50,1281.50 C802.88,1280.93 783.80,1272.60 775.87,1269.05 C767.95,1265.40 752.78,1257.52 749.25,1255.94 C745.47,1254.24 734.33,1245.86 728.28,1241.25 C721.56,1235.94 709.55,1225.14 703.93,1219.36 C698.59,1213.72 687.97,1201.65 685.73,1197.42 C684.91,1195.90 683.97,1193.87 683.50,1193.50 C682.56,1192.75 680.02,1191.07 679.41,1189.47 C678.07,1186.01 675.44,1181.80 672.35,1178.18 C668.62,1173.51 667.08,1164.61 666.50,1163.50 C666.04,1162.63 660.73,1154.57 659.30,1150.32 C658.45,1147.73 655.75,1137.84 655.50,1137.50 C654.94,1136.74 653.29,1135.19 652.85,1133.21 C652.79,1132.93 646.87,1109.94 644.82,1101.08 C642.53,1090.03 640.71,1077.84 640.58,1070.63 C640.44,1064.68 638.54,1050.30 636.84,1042.46 C634.79,1033.18 632.78,1018.63 633.03,1011.16 C633.21,1007.69 633.54,999.85 633.50,999.50 C633.42,998.74 632.54,995.82 632.50,995.50 C632.42,994.85 633.09,950.33 633.42,933.01 C634.19,907.06 635.32,893.16 636.38,889.13 C636.67,888.03 639.31,880.94 640.03,876.77 C640.68,872.87 642.58,854.72 643.33,847.41 C644.00,841.67 649.61,830.70 651.29,822.04 C651.68,819.87 652.44,815.91 652.81,814.12 C653.39,811.39 656.58,807.68 657.22,805.00 C658.04,801.68 659.71,793.98 660.71,790.06 C661.24,788.00 662.49,786.14 662.94,785.43 C663.56,784.40 663.43,782.87 662.55,780.93 C661.31,778.39 659.16,776.10 656.50,774.50 C654.57,773.38 643.39,770.56 642.86,770.43 C638.97,769.47 632.59,766.93 630.15,764.93 C629.97,764.77 627.32,762.29 626.50,761.50 C624.95,759.91 623.90,757.83 623.50,755.50 C623.35,754.55 622.99,744.20 623.50,741.50 C623.95,739.24 624.80,736.88 626.28,733.70 C627.20,731.76 628.90,730.94 629.50,730.50 C629.96,730.17 632.54,726.03 633.09,725.28 C634.23,723.70 636.77,721.31 638.26,720.41 C638.59,720.21 642.80,718.07 643.50,717.50 C643.92,717.16 646.76,714.09 647.50,713.50 C648.29,712.87 655.84,708.64 657.18,706.36 C658.36,704.22 658.56,697.94 657.94,693.51 C657.27,689.05 655.74,684.00 653.73,679.98 C652.09,676.23 650.23,662.40 647.77,654.32 C646.65,650.84 644.48,643.84 643.91,640.14 C643.38,636.51 643.42,629.11 643.95,625.43 C644.91,619.08 648.14,605.81 650.50,600.50 C651.12,599.12 654.96,591.48 657.17,587.45 C659.37,583.45 662.60,578.01 664.90,576.50 C665.43,576.15 666.10,575.99 666.50,575.50 C666.87,575.05 667.66,572.48 668.50,571.50 C669.19,570.70 676.51,565.72 678.03,563.42 C679.41,561.33 686.70,557.17 687.50,556.50 C689.50,554.50 692.48,551.68 696.41,549.37 C701.51,546.42 718.85,538.02 721.47,535.83 C723.24,534.38 731.47,532.56 733.50,531.50 C733.84,531.33 741.02,525.33 744.08,524.61 C747.16,524.07 753.45,522.76 756.87,521.00 C760.39,519.01 767.46,515.26 771.15,514.44 C772.37,514.18 782.07,512.62 784.95,510.99 C788.94,508.41 793.70,506.73 798.79,505.90 C801.67,505.43 804.28,504.92 805.50,504.50 C807.30,503.87 812.08,500.70 816.07,499.88 C823.61,498.62 837.87,496.10 847.34,493.74 C858.06,490.97 866.49,489.84 869.69,490.38 C871.20,490.64 872.00,490.00 872.50,489.50 Z" fill="none" stroke="rgb(0, 0, 0)" stroke-width="35.00" stroke-opacity="1.00" stroke-linejoin="round"/>
<path d="M1157.50,920.50 C1157.24,920.63 1152.55,921.10 1151.50,921.50 C1151.23,921.60 1140.40,928.62 1139.88,929.01 C1138.54,930.08 1136.83,932.46 1136.30,933.92 C1135.61,935.97 1134.48,943.52 1134.19,946.50 C1133.72,951.89 1133.90,956.37 1135.50,959.50 C1137.16,962.59 1142.56,967.65 1146.79,970.75 C1148.52,971.98 1151.71,973.66 1153.22,974.06 C1153.95,974.25 1157.02,974.28 1157.50,974.50 C1158.19,974.79 1159.91,975.57 1162.31,975.14 C1164.35,974.77 1168.68,973.94 1169.50,973.50 C1170.49,972.96 1172.83,970.12 1173.50,969.50 C1174.22,968.82 1178.28,966.67 1178.67,966.37 C1181.21,964.43 1184.92,957.36 1185.70,954.76 C1186.70,951.23 1186.24,943.77 1184.76,939.72 C1183.58,936.58 1179.08,928.38 1176.52,926.35 C1174.01,924.93 1167.69,920.56 1167.50,920.50 C1166.59,920.24 1159.87,920.67 1159.50,920.50 C1159.07,920.30 1158.97,919.52 1158.50,919.50 C1158.03,919.49 1157.93,920.30 1157.50,920.50 Z" fill="none" stroke="rgb(0, 0, 0)" stroke-width="35.00" stroke-opacity="1.00" stroke-linejoin="round"/>
<path d="M824.50,921.50 C821.73,922.58 815.76,926.65 812.61,929.41 C811.23,930.66 808.98,933.31 808.18,934.75 C807.00,936.92 806.30,943.57 806.38,948.85 C806.42,950.73 806.53,954.80 806.50,955.50 C806.45,958.14 806.98,959.81 808.50,961.50 C809.92,963.03 822.94,973.93 824.40,974.25 C824.76,974.32 833.37,975.38 834.98,975.24 C838.10,974.94 844.42,971.67 847.47,969.27 C850.53,966.81 855.00,961.51 856.54,958.13 C856.75,957.63 858.39,953.26 858.50,952.50 C858.75,950.70 858.27,947.18 858.50,946.50 C858.72,945.79 859.45,945.24 859.50,944.50 C859.51,944.21 854.03,932.50 852.50,930.50 C850.78,928.30 845.48,925.80 843.46,923.84 C842.78,923.19 840.23,921.05 838.50,920.50 C836.22,919.82 828.19,920.12 824.50,921.50 Z" fill="none" stroke="rgb(0, 0, 0)" stroke-width="35.00" stroke-opacity="1.00" stroke-linejoin="round"/>
<path d="M818.50,1044.50 C816.28,1045.11 811.44,1049.26 811.50,1049.50 C811.78,1050.40 814.08,1052.10 815.16,1054.00 C815.96,1055.37 818.78,1060.50 819.13,1061.20 C820.18,1063.22 821.89,1064.07 822.50,1064.50 C822.89,1064.77 827.59,1071.77 830.91,1074.88 C832.95,1076.77 841.13,1084.00 841.50,1084.50 C842.12,1085.35 843.19,1088.20 843.50,1088.50 C843.83,1088.82 848.47,1091.70 849.50,1092.50 C850.44,1093.23 855.25,1098.71 858.89,1101.18 C872.22,1110.10 897.51,1126.17 899.61,1126.85 C904.11,1128.31 906.26,1129.36 910.41,1131.99 C914.80,1134.75 918.15,1136.21 922.06,1136.85 C924.19,1137.19 931.75,1140.88 931.90,1140.94 C935.37,1142.28 953.98,1146.49 962.33,1148.28 C970.42,1149.84 987.05,1152.57 992.07,1152.41 C996.66,1152.21 1028.98,1144.99 1035.85,1143.24 C1039.61,1142.27 1043.91,1139.50 1046.50,1138.50 C1048.66,1137.67 1056.07,1135.69 1059.87,1134.54 C1062.80,1133.61 1068.98,1128.08 1070.95,1127.51 C1072.31,1127.12 1081.04,1124.57 1083.75,1122.47 C1083.89,1122.36 1087.69,1118.89 1088.50,1118.50 C1091.50,1117.50 1095.05,1116.24 1099.60,1113.01 C1109.72,1105.59 1112.35,1101.92 1113.01,1101.64 C1115.54,1100.57 1120.69,1096.57 1124.70,1093.04 C1127.82,1090.21 1134.59,1083.54 1135.50,1082.50 C1138.06,1079.57 1140.28,1075.38 1142.20,1074.57 C1144.16,1073.75 1144.86,1073.24 1146.38,1071.46 C1154.43,1062.18 1163.48,1050.01 1163.50,1049.50 C1163.53,1047.53 1161.27,1045.37 1158.50,1044.50 C1155.14,1043.52 1142.86,1043.50 1137.57,1043.49 C1105.20,1043.50 1038.06,1043.51 1003.27,1043.51 C970.99,1043.50 907.39,1043.51 876.07,1043.53 C858.66,1043.60 819.86,1044.15 818.50,1044.50 Z" fill="none" stroke="rgb(0, 0, 0)" stroke-width="35.00" stroke-opacity="1.00" stroke-linejoin="round"/>
</g>
</svg>
